<svg width="250" height="291" viewBox="0 0 250 291" fill="none" xmlns="http://www.w3.org/2000/svg">
<path d="M110.641 6.47171L110.644 6.46887C114.581 2.4696 119.789 0.5 125.002 0.5C130.213 0.5 135.41 2.48502 139.375 6.45514L139.375 6.45544L243.543 110.593C251.486 118.534 251.486 131.397 243.543 139.337C235.6 147.278 222.733 147.278 214.79 139.338C214.79 139.338 214.79 139.337 214.79 139.337L146.189 70.7205L145.335 69.8667V71.0741L145.335 270.758C145.335 281.986 136.239 290.5 125.588 290.5C114.899 290.5 104.668 281.951 104.668 270.758L104.668 71.0741V69.8672L103.815 70.7204L35.1939 139.321C27.251 147.262 14.3837 147.262 6.44084 139.321C-1.50093 131.382 -1.47043 118.551 6.47339 110.609L110.641 6.47171Z" fill="white" stroke="black"/>
</svg>
