<svg width="20" height="20" viewBox="0 0 145 141" fill="none" xmlns="http://www.w3.org/2000/svg">
<path d="M114.773 73.0643V72.7371L114.473 72.6061C106.876 69.2872 101.561 61.7133 101.561 52.8755C101.561 40.9837 111.175 31.3444 123.03 31.3444C134.891 31.3444 144.5 40.978 144.5 52.8893C144.5 61.7133 139.195 69.2766 131.617 72.6037L131.318 72.735V73.0615V94.7347C131.318 119.947 109.868 140.5 83.4848 140.5C57.537 140.5 36.3845 120.675 35.6788 96.0395L35.6674 95.6429L35.2786 95.5638C15.4632 91.5346 0.5 73.905 0.5 52.8728V10.0773C0.5 7.14868 2.56996 4.64127 5.39284 4.06842C5.39324 4.06834 5.39364 4.06826 5.39404 4.06818L22.6571 0.653828L22.6595 0.653342C25.9583 -0.0158881 29.1658 2.12385 29.7997 5.4293L29.8 5.4312L30.6486 9.76528L30.6492 9.76808C31.3172 13.0796 29.1807 16.2953 25.8872 16.9304L25.8841 16.9311L17.4477 18.6142L17.0453 18.6945L17.0455 19.1049L17.0648 52.848C17.0648 52.8481 17.0648 52.8482 17.0648 52.8483C17.0649 67.8221 29.2169 79.9064 44.1556 79.766C58.9938 79.6257 70.7756 67.3453 70.7756 52.5175V19.0768V18.666L70.3727 18.5863L61.9469 16.9182C61.9465 16.9181 61.9461 16.918 61.9458 16.9179C58.6463 16.2478 56.5064 13.0441 57.1718 9.73651C57.1718 9.73614 57.1719 9.73577 57.172 9.7354L58.0614 5.40192L58.0618 5.39988C58.7275 2.0866 61.9097 -0.0450021 65.2057 0.622398L65.2064 0.622538L82.4855 4.0959L82.4903 4.09681C85.3058 4.63459 87.3788 7.1779 87.3788 10.0773V52.6277C87.3788 73.9203 72.1994 91.4834 52.6827 95.5616L52.2655 95.6488L52.2855 96.0745C53.0135 111.554 66.8024 123.878 83.5151 123.878C100.715 123.878 114.773 110.812 114.773 94.7374V73.0643ZM115.939 52.8755C115.939 56.7993 119.114 59.9849 123.03 59.9849C126.96 59.9849 130.121 56.813 130.121 52.8755C130.121 48.938 126.96 45.7662 123.03 45.7662C119.1 45.7662 115.939 48.9525 115.939 52.8755Z" fill="white" stroke="black"/>
</svg>
